<?xml version="1.0" encoding="UTF-8"?>
<!DOCTYPE svg PUBLIC "-//W3C//DTD SVG 1.1//EN"
    "http://www.w3.org/Graphics/SVG/1.1/DTD/svg11.dtd">
<svg xmlns="http://www.w3.org/2000/svg" xmlns:xlink="http://www.w3.org/1999/xlink" version="1.1" width="500.0" height="159.09090909090907" font-size="1" viewBox="0 0 500 159"><g><g fill="rgb(0,0,0)" fill-opacity="0.0"><g stroke="rgb(0,0,0)" stroke-opacity="1.0" stroke-width="0.2" stroke-linecap="butt" stroke-linejoin="miter" font-size="1.0em" stroke-miterlimit="10.0"><g transform="matrix(11.363636363636363,0.0,0.0,11.363636363636363,250.0,0.0)"><g><g><g><path d="M 22.0,3.0000000000000004 c 0.0,-1.6568542494923804 -1.3431457505076194,-3.0 -2.999999999999999 -3.0c -1.6568542494923804,-1.0145306266472669e-16 -3.0,1.3431457505076192 -3.0 2.999999999999999c -2.0290612532945337e-16,1.6568542494923804 1.343145750507619,3.0 2.9999999999999987 3.0c 1.6568542494923804,3.0435918799418007e-16 3.0,-1.3431457505076188 3.0000000000000004 -2.999999999999999Z" /></g><g><path d="M 16.0,1.0000000000000004 c 0.0,-0.5522847498307935 -0.44771525016920644,-1.0 -0.9999999999999998 -1.0c -0.5522847498307935,-3.3817687554908895e-17 -1.0,0.4477152501692064 -1.0 0.9999999999999997c -6.763537510981779e-17,0.5522847498307935 0.4477152501692063,1.0 0.9999999999999996 1.0c 0.5522847498307935,1.0145306266472669e-16 1.0,-0.44771525016920627 1.0000000000000002 -0.9999999999999997Z" /></g></g><g><g><path d="M 13.999999999999996,7.0 c 0.0,-3.8659932488155544 -3.134006751184445,-7.0 -6.999999999999998 -7.0c -3.8659932488155544,-2.3672381288436225e-16 -7.0,3.1340067511844447 -7.0 6.999999999999997c -4.734476257687245e-16,3.8659932488155544 3.1340067511844443,7.0 6.9999999999999964 7.0c 3.8659932488155544,7.101714386530868e-16 7.0,-3.134006751184444 7.000000000000002 -6.999999999999997Z" /></g><g><path d="M -3.552713678800501e-15,4.0 c 0.0,-2.209138999323174 -1.7908610006768257,-4.0 -3.999999999999999 -4.0c -2.209138999323174,-1.3527075021963558e-16 -4.0,1.7908610006768255 -4.0 3.9999999999999987c -2.7054150043927116e-16,2.209138999323174 1.7908610006768253,4.0 3.9999999999999982 4.0c 2.209138999323174,4.0581225065890674e-16 4.0,-1.790861000676825 4.000000000000001 -3.9999999999999987Z" /></g></g><g><path d="M -8.000000000000002,5.0 c 0.0,-2.761423749153967 -2.238576250846032,-5.0 -4.999999999999999 -5.0c -2.761423749153967,-1.690884377745445e-16 -5.0,2.238576250846032 -5.0 4.999999999999998c -3.38176875549089e-16,2.761423749153967 2.2385762508460316,5.0 4.999999999999998 5.0c 2.761423749153967,5.072653133236334e-16 5.0,-2.238576250846031 5.000000000000002 -4.999999999999998Z" /></g><g><path d="M -18.0,2.0 c 0.0,-1.104569499661587 -0.8954305003384129,-2.0 -1.9999999999999996 -2.0c -1.104569499661587,-6.763537510981779e-17 -2.0,0.8954305003384128 -2.0 1.9999999999999993c -1.3527075021963558e-16,1.104569499661587 0.8954305003384126,2.0 1.9999999999999991 2.0c 1.104569499661587,2.0290612532945337e-16 2.0,-0.8954305003384125 2.0000000000000004 -1.9999999999999993Z" /></g></g><path d="M -22.0,0.0 h 44.0 " /></g></g></g></g></svg>